<svg width="552" height="398" viewBox="0 0 552 398" fill="none" xmlns="http://www.w3.org/2000/svg">
<path fill-rule="evenodd" clip-rule="evenodd" d="M96.3 358C149.043 358 191.8 316.139 191.8 264.5C191.8 212.861 149.043 171 96.3 171C43.5568 171 0.799988 212.861 0.799988 264.5C0.799988 316.139 43.5568 358 96.3 358Z" fill="#FF5989"/>
<path fill-rule="evenodd" clip-rule="evenodd" d="M456.3 358C509.043 358 551.8 316.139 551.8 264.5C551.8 212.861 509.043 171 456.3 171C403.557 171 360.8 212.861 360.8 264.5C360.8 316.139 403.557 358 456.3 358Z" fill="#FF5989"/>
<path d="M151.6 169.2C165.131 169.2 176.1 158.231 176.1 144.7C176.1 131.169 165.131 120.2 151.6 120.2C138.069 120.2 127.1 131.169 127.1 144.7C127.1 158.231 138.069 169.2 151.6 169.2Z" fill="black"/>
<path d="M399.6 169.2C413.131 169.2 424.1 158.231 424.1 144.7C424.1 131.169 413.131 120.2 399.6 120.2C386.069 120.2 375.1 131.169 375.1 144.7C375.1 158.231 386.069 169.2 399.6 169.2Z" fill="black"/>
<path d="M300.433 200.933C301.574 194.545 307.678 190.292 314.066 191.433C320.454 192.574 324.708 198.678 323.567 205.066C320.034 224.844 298.971 238.75 276.5 238.75C254.029 238.75 232.966 224.844 229.433 205.066C228.292 198.678 232.546 192.574 238.934 191.433C245.224 190.309 251.238 194.416 252.511 200.64L252.567 200.933C253.874 208.252 264.473 215.25 276.5 215.25C288.391 215.25 298.885 208.41 300.385 201.183L300.433 200.933Z" fill="black"/>
</svg>
