<svg width="552" height="398" viewBox="0 0 552 398" fill="none" xmlns="http://www.w3.org/2000/svg"><path fill-rule="evenodd" clip-rule="evenodd" d="M96.3 358c52.743 0 95.5-41.861 95.5-93.5S149.043 171 96.3 171 .8 212.861.8 264.5 43.557 358 96.3 358m360 0c52.743 0 95.5-41.861 95.5-93.5S509.043 171 456.3 171s-95.5 41.861-95.5 93.5 42.757 93.5 95.5 93.5" fill="#FF5989"/><path d="M151.6 100.2c13.531 0 24.5-10.969 24.5-24.5s-10.969-24.5-24.5-24.5-24.5 10.969-24.5 24.5 10.969 24.5 24.5 24.5m248 0c13.531 0 24.5-10.969 24.5-24.5s-10.969-24.5-24.5-24.5-24.5 10.969-24.5 24.5 10.969 24.5 24.5 24.5m-99.167 31.733c1.141-6.388 7.245-10.641 13.633-9.5s10.642 7.245 9.501 13.633c-3.533 19.778-24.596 33.684-47.067 33.684s-43.534-13.906-47.067-33.684c-1.141-6.388 3.113-12.492 9.501-13.633 6.29-1.124 12.304 2.983 13.577 9.207l.056.293c1.307 7.319 11.906 14.317 23.933 14.317 11.891 0 22.385-6.84 23.885-14.067z" fill="#fff"/></svg>