<svg height="100" width="100" version="1.1" id="_x32_" xmlns="http://www.w3.org/2000/svg" viewBox="0 0 512 512" xml:space="preserve"><style>.st0{fill:#000}</style><path class="st0" d="M378.413 0H195.115L185.8 9.314 57.02 138.102l-9.314 9.314v278.69c0 47.36 38.528 85.895 85.896 85.895h244.811c47.353 0 85.881-38.535 85.881-85.895V85.896C464.294 38.528 425.766 0 378.413 0m54.084 426.105c0 29.877-24.214 54.091-54.084 54.091H133.602c-29.884 0-54.098-24.214-54.098-54.091V160.591h83.716c24.885 0 45.077-20.178 45.077-45.07V31.804h170.116c29.87 0 54.084 24.214 54.084 54.092z"/><path class="st0" d="M169.574 268.949c5.837 0 9.104 2.171 12.499 6.786 2.709 3.805 5.432 5.167 8.825 5.167 5.028 0 9.105-3.673 9.105-8.965 0-2.171-.684-4.078-1.774-5.977-4.622-8.288-14.802-14.669-28.655-14.669-16.171 0-28.124 7.603-33.012 22.685-1.899 6.11-2.57 10.865-2.57 24.989s.67 18.881 2.57 24.99c4.888 15.081 16.841 22.685 33.012 22.685 13.853 0 24.033-6.382 28.655-14.67 1.09-1.899 1.774-3.805 1.774-5.976 0-5.3-4.078-8.965-9.105-8.965-3.393 0-6.116 1.361-8.825 5.16-3.394 4.622-6.662 6.794-12.499 6.794-7.471 0-11.814-3.938-13.853-10.187-1.089-3.393-1.494-6.654-1.494-19.83s.406-16.436 1.494-19.829c2.039-6.25 6.382-10.188 13.853-10.188m85.575 20.646-4.888-.684c-10.725-1.494-14.398-5.02-14.398-10.187 0-5.837 4.343-9.915 12.498-9.915 5.698 0 11.409 1.634 15.892 3.805 1.899.95 3.938 1.494 5.837 1.494 4.888 0 8.7-3.666 8.7-8.693 0-3.261-1.494-5.977-4.762-8.016-5.432-3.394-15.612-6.11-25.806-6.11-19.97 0-32.733 11.269-32.733 28.25 0 16.304 10.32 25.13 29.2 27.713l4.901.677c10.99 1.494 14.258 4.888 14.258 10.32 0 6.389-5.306 10.872-15.082 10.872-6.787 0-12.219-1.767-19.83-5.977-1.634-.956-3.672-1.634-5.837-1.634-5.166 0-8.965 3.938-8.965 8.832 0 3.254 1.634 6.382 4.748 8.42 6.116 3.799 16.031 7.876 29.074 7.876 24.032 0 36.266-12.358 36.266-29.067.001-16.706-9.915-25.26-29.073-27.976m83.548 0-4.888-.684c-10.738-1.494-14.398-5.02-14.398-10.187 0-5.837 4.344-9.915 12.484-9.915 5.712 0 11.423 1.634 15.892 3.805 1.913.95 3.952 1.494 5.851 1.494 4.887 0 8.686-3.666 8.686-8.693 0-3.261-1.494-5.977-4.748-8.016-5.432-3.394-15.626-6.11-25.806-6.11-19.969 0-32.733 11.269-32.733 28.25 0 16.304 10.32 25.13 29.2 27.713l4.888.677c11.004 1.494 14.258 4.888 14.258 10.32 0 6.389-5.292 10.872-15.068 10.872-6.8 0-12.232-1.767-19.829-5.977-1.634-.956-3.673-1.634-5.851-1.634-5.153 0-8.965 3.938-8.965 8.832 0 3.254 1.634 6.382 4.762 8.42 6.117 3.799 16.032 7.876 29.06 7.876 24.047 0 36.266-12.358 36.266-29.067 0-16.706-9.915-25.26-29.061-27.976"/></svg>