<svg width="100" height="100" viewBox="0 0 48 48" xmlns="http://www.w3.org/2000/svg"><path fill="none" d="M0 0h48v48H0z"/><path d="M35.4 17.3a7.9 7.9 0 0 0 3.4-6.6 8.2 8.2 0 0 0-8.1-8.2H17.3a8.2 8.2 0 0 0-8.1 8.2 7.9 7.9 0 0 0 3.4 6.6 8.3 8.3 0 0 0 0 13.4 7.9 7.9 0 0 0-3.4 6.6 8.2 8.2 0 0 0 8.1 8.2 8.2 8.2 0 0 0 8.2-8.2v-7a7.9 7.9 0 0 0 5.2 1.9 8.2 8.2 0 0 0 4.7-14.9m.4-6.6a5.1 5.1 0 0 1-5.1 5.1h-5.2V5.5h5.2a5.1 5.1 0 0 1 5.1 5.2m-23.6 0a5.1 5.1 0 0 1 5.1-5.2h5.2v10.3h-5.2a5.1 5.1 0 0 1-5.1-5.1m0 13.3a5.2 5.2 0 0 1 5.1-5.2h5.2v10.4h-5.2a5.2 5.2 0 0 1-5.1-5.2m10.3 13.3a5.2 5.2 0 1 1-5.2-5.1h5.2Zm8.2-8.1a5.2 5.2 0 1 1 5.1-5.2 5.2 5.2 0 0 1-5.1 5.2"/></svg>