<svg width="24" height="24" viewBox="0 0 48 48" fill="none" xmlns="http://www.w3.org/2000/svg"><path fill="#fff" fill-opacity=".01" d="M0 0h48v48H0z"/><path fill-rule="evenodd" clip-rule="evenodd" d="M24 4C12.954 4 4 12.954 4 24s8.954 20 20 20 20-8.954 20-20S35.046 4 24 4M0 24C0 10.745 10.745 0 24 0s24 10.745 24 24-10.745 24-24 24S0 37.255 0 24" fill="#fff"/><path fill-rule="evenodd" clip-rule="evenodd" d="M19.183 45.472q-.29-.375 0-6.674-3.107.108-3.927-.431c-.82-.54-1.64-2.2-2.367-3.371s-2.343-1.356-2.995-1.618-.816-1.328 1.797-.522c2.613.807 2.74 3.005 3.565 3.518.824.514 2.795.29 3.689-.122.893-.412.827-1.944.986-2.551.202-.567-.508-.693-.524-.697-.872 0-5.453-.997-6.712-5.433-1.258-4.437.363-7.337 1.228-8.584q.864-1.246-.153-5.313Q17.464 13.2 19.473 16c.002.01 1.755-1.043 4.527-1.043s3.755.858 4.514 1.043 1.366-3.266 6.053-2.326c-.979 1.923-1.798 4.326-1.173 5.313.626.988 3.08 4.128 1.572 8.584q-1.507 4.455-5.928 5.433-.507.16-.507.521c0 .36.457.4 1.115 2.087q.658 1.686.095 9.635-1.425.362-2.22.488c-.937.147-1.954.23-2.954.261-1 .032-1.348.029-2.73-.1a20 20 0 0 1-2.654-.425" fill="#fff"/></svg>