<svg height="100" width="100" version="1.1" id="_x32_" xmlns="http://www.w3.org/2000/svg" viewBox="0 0 512 512" xml:space="preserve"><style>.st0{fill:#000}</style><path class="st0" d="M378.413 0H195.115L185.8 9.314 57.02 138.102l-9.314 9.314v278.69c0 47.36 38.528 85.895 85.896 85.895h244.811c47.353 0 85.881-38.535 85.881-85.895V85.896C464.294 38.528 425.766 0 378.413 0m54.084 426.105c0 29.877-24.214 54.091-54.084 54.091H133.602c-29.884 0-54.098-24.214-54.098-54.091V160.591h83.716c24.885 0 45.077-20.178 45.077-45.07V31.804h170.116c29.87 0 54.084 24.214 54.084 54.092z"/><path class="st0" d="M163.164 253.19c-5.097 0-8.867 3.652-8.867 9.482v23.453c0 .489-.251.734-.726.734h-26.993c-.475 0-.726-.245-.726-.734v-23.453c0-5.831-3.771-9.482-8.868-9.482-5.222 0-8.993 3.652-8.993 9.482v65.144c0 5.83 3.645 9.475 8.868 9.475 5.111 0 8.993-3.645 8.993-9.475v-24.305c0-.489.251-.734.726-.734h26.993c.475 0 .726.244.726.734v24.305c0 5.83 3.77 9.475 8.867 9.475 5.223 0 8.993-3.645 8.993-9.475v-65.144c0-5.831-3.77-9.482-8.993-9.482m72.085.733h-47.284c-5.46 0-8.993 3.282-8.993 8.023 0 4.615 3.533 7.897 8.993 7.897h13.978c.488 0 .726.244.726.726v57.247c0 5.711 3.771 9.475 8.882 9.475 5.223 0 8.993-3.764 8.993-9.475v-57.247c0-.482.237-.726.726-.726h13.978c5.46 0 8.993-3.282 8.993-7.897.001-4.742-3.532-8.023-8.992-8.023m83.004-.733c-5.348 0-8.267 2.919-10.934 9.238l-17.26 39.862h-.489l-17.623-39.862c-2.794-6.319-5.712-9.238-11.06-9.238-5.948 0-9.845 4.134-9.845 10.697v64.781c0 5.467 3.408 8.623 8.268 8.623 4.622 0 8.029-3.156 8.029-8.623V288.8h.6l12.89 29.653c2.541 5.837 4.608 7.541 8.742 7.541 4.133 0 6.2-1.704 8.756-7.541l12.764-29.653h.601v39.868c0 5.467 3.281 8.623 8.141 8.623 4.874 0 8.156-3.156 8.156-8.623v-64.781c-.002-6.564-3.773-10.697-9.736-10.697m71.107 67.455h-29.408c-.489 0-.726-.244-.726-.734v-57.24c0-5.712-3.77-9.482-8.867-9.482-5.237 0-8.993 3.77-8.993 9.482v64.899c0 5.349 3.518 8.993 8.993 8.993h39.002c5.475 0 8.994-3.282 8.994-8.022-.001-4.615-3.52-7.896-8.995-7.896"/></svg>